<svg xmlns="http://www.w3.org/2000/svg" width="22" height="22" viewBox="0 0 22 22">
  <path fill="#FFF" fill-rule="evenodd" d="M20.1666667,16.5 L7.33333333,16.5 C6.32081129,16.5 5.5,15.6791887 5.5,14.6666667 L5.5,1.83333333 C5.5,0.820811292 6.32081129,0 7.33333333,0 L20.1666667,0 C21.1791887,0 22,0.820811292 22,1.83333333 L22,14.6666667 C22,15.6791887 21.1791887,16.5 20.1666667,16.5 L20.1666667,16.5 Z M20.1666667,1.83333333 L7.33333333,1.83333333 L7.33333333,14.6666667 L20.1666667,14.6666667 L20.1666667,1.83333333 L20.1666667,1.83333333 Z M11.4491667,9.38575 L12.4941667,10.43625 L15.7025,4.13875 C15.8212564,3.92190291 16.0225713,3.76222116 16.2607581,3.69594309 C16.4989449,3.62966502 16.7538049,3.66241114 16.9675,3.78675 C17.4099596,4.05975463 17.5559981,4.63457823 17.2975,5.08566667 L13.6858333,12.1953333 C13.6510193,12.3401229 13.5782438,12.4730172 13.475,12.5803333 C13.3020551,12.7549448 13.0595449,12.8421811 12.815,12.81775 C12.4223184,12.8451546 12.063614,12.5952064 11.9533333,12.2173333 L10.285,10.5508333 C9.9953471,10.2243998 10.0100286,9.7288518 10.3184988,9.42013871 C10.626969,9.11142562 11.1225053,9.09635412 11.4491667,9.38575 L11.4491667,9.38575 Z M1.83333333,20.1666667 L14.6666667,20.1666667 L14.6666667,18.3333333 L16.5,18.3333333 L16.5,20.1666667 C16.5,21.1791887 15.6791887,22 14.6666667,22 L1.83333333,22 C0.820811292,22 0,21.1791887 0,20.1666667 L0,7.33333333 C0,6.32081129 0.820811292,5.5 1.83333333,5.5 L3.66666667,5.5 L3.66666667,7.33333333 L1.83333333,7.33333333 L1.83333333,20.1666667 L1.83333333,20.1666667 Z" opacity=".5"/>
</svg>
