<svg xmlns="http://www.w3.org/2000/svg" width="23" height="23" viewBox="0 0 23 23">
  <path fill="#FFF" fill-rule="evenodd" d="M22.9264,12.328 C22.8486204,13.006886 22.2757182,13.5205225 21.5924,13.524 L21.5096,13.524 L21.4084,13.524 C20.7950147,13.5269786 20.246675,13.9070393 20.0285983,14.4803569 C19.8105216,15.0536744 19.9676561,15.7020812 20.424,16.11196 C20.9487151,16.5955836 21.0128414,17.4015708 20.5712,17.96208 C20.0434233,18.6179131 19.4414059,19.21036 18.7772,19.72756 C18.5407947,19.9127567 18.2495051,20.0140607 17.9492,20.01552 C17.5685678,20.014504 17.2054233,19.8555866 16.9464,19.57668 C16.6448012,19.2662812 16.2291709,19.0930465 15.7964,19.09736 C15.6200886,19.0965302 15.4452349,19.1293153 15.2812,19.19396 C14.7066972,19.4354223 14.3407419,20.0063125 14.3612,20.62916 C14.383872,21.3365955 13.8593491,21.9427998 13.156,22.02204 C12.330413,22.1136933 11.4971007,22.1115328 10.672,22.0156 C9.96079761,21.9324034 9.43923732,21.3069354 9.4852,20.59236 C9.51639703,19.9636572 9.15305626,19.381945 8.5744,19.13416 C8.40779439,19.0669158 8.22966121,19.0328518 8.05,19.03388 C7.61751175,19.0300782 7.20218548,19.202854 6.9,19.51228 C6.41672103,20.044646 5.60266209,20.1091259 5.0416,19.65948 C4.39659417,19.1378175 3.8132207,18.5442581 3.3028,17.89032 C2.86130367,17.3367507 2.92573068,16.5354398 3.45,16.05952 C3.90774932,15.6361124 4.05767094,14.974629 3.8272,14.39524 C3.60653962,13.8493843 3.08184127,13.4875234 2.4932,13.47524 L2.438,13.47524 C1.72681188,13.4846585 1.11434163,12.975567 0.9936,12.27464 C0.892397736,11.4408062 0.892397736,10.5977938 0.9936,9.76396 C1.06674929,9.06402622 1.67037529,8.54088368 2.3736,8.56796 C3.00986418,8.59257119 3.59963116,8.23581644 3.8732,7.66084 C4.11388113,7.07819386 3.96296596,6.40717348 3.496,5.98368 C2.97141082,5.5003717 2.90727717,4.69469274 3.3488,4.13448 C3.8747767,3.47986033 4.47356508,2.88724502 5.1336,2.36808 C5.37366378,2.18311608 5.66775071,2.0819631 5.9708,2.08012 C6.35196862,2.08129192 6.71538958,2.2413305 6.9736,2.52172 C7.27637219,2.8299519 7.69155915,3.00167323 8.1236,2.99736 C8.29957812,2.99921277 8.47433941,2.9680054 8.6388,2.90536 C9.21391525,2.66311452 9.57989055,2.09109513 9.5588,1.4674 C9.53665886,0.76050236 10.0611558,0.155128802 10.764,0.07636 C11.5896099,-0.0148687818 12.4228742,-0.0127084669 13.248,0.0828 C13.9585876,0.16642269 14.4797788,0.791044144 14.4348,1.50512 C14.3995114,2.13533157 14.7640706,2.71973094 15.3456,2.96516 C15.5124126,3.03159609 15.6904462,3.06532877 15.87,3.06452 C16.3022904,3.06824304 16.7174765,2.89585778 17.02,2.58704 C17.5002425,2.05665805 18.3102138,1.99137678 18.8692,2.438 C19.5179022,2.95791399 20.1044477,3.55094235 20.6172,4.20532 C21.0617252,4.76129155 20.9972612,5.56709137 20.47,6.04532 C20.011705,6.46004956 19.8586816,7.11552997 20.0859731,7.69031123 C20.3132646,8.2650925 20.873206,8.63863814 21.4912,8.62776 C22.1977314,8.62173813 22.8049158,9.12772513 22.9264,9.82376 C23.0224359,10.6557445 23.0224359,11.4960155 22.9264,12.328 L22.9264,12.328 Z M21.1048,10.19084 C19.9309287,10.1632897 18.8844308,9.44418256 18.4378479,8.35822841 C17.9912649,7.27227425 18.2291158,6.02499725 19.044,5.1796 C18.6851094,4.73886118 18.2845927,4.33372304 17.848,3.9698 C17.2760842,4.50288658 16.5230363,4.79884427 15.7412,4.7978 C15.3656235,4.80006783 14.9933875,4.72718466 14.6464,4.58344 C13.555537,4.12212283 12.8432339,3.0565607 12.834,1.8722 C12.2678781,1.8197669 11.6981219,1.8197669 11.132,1.8722 C11.0680957,3.01292234 10.3126163,3.99833023 9.2276,4.3562 C8.91983253,4.55150304 8.57549322,4.68203895 8.2156,4.73984 C7.4380633,4.74080761 6.68885838,4.44802621 6.118,3.92012 C5.66882764,4.2831566 5.25595803,4.68893965 4.8852,5.13176 C5.70929933,5.98317982 5.947994,7.24319837 5.4924,8.33704 C5.01727451,9.41298039 3.96344175,10.1176862 2.7876,10.14576 C2.73391992,10.720913 2.73084144,11.2996685 2.7784,11.87536 C3.95514437,11.898085 5.00612952,12.6171646 5.45362516,13.7057377 C5.9011208,14.7943108 5.6597386,16.0446627 4.8392,16.88844 C5.20267426,17.325324 5.60279472,17.730369 6.0352,18.09916 C6.60879212,17.568739 7.36075086,17.2732093 8.142,17.27116 C8.52069994,17.2683019 8.89611902,17.3415086 9.246,17.48644 C10.3373776,17.946131 11.0501225,19.0116304 11.0584,20.19584 C11.6244995,20.2487552 12.1943005,20.2487552 12.7604,20.19584 C12.7969586,19.0267331 13.5124857,17.9865221 14.5912,17.53428 C14.9333034,17.3966456 15.2988513,17.3266603 15.6676,17.3282 C16.4483161,17.3257978 17.2010081,17.6189861 17.7744,18.14884 C18.2205736,17.7824537 18.6331447,17.376964 19.0072,16.9372 C18.1788134,16.0880074 17.9396012,14.8252567 18.4,13.73192 C18.8644308,12.6460165 19.9238985,11.9346596 21.1048,11.91584 C21.160294,11.3409494 21.160294,10.7620506 21.1048,10.18716 L21.1048,10.19084 Z M11.96,14.72 C10.4680212,14.725959 9.11963581,13.8317989 8.54454644,12.4550969 C7.96945708,11.0783949 8.28113076,9.49077879 9.33401432,8.43367314 C10.3868979,7.37656749 11.973254,7.05854269 13.3522465,7.6281179 C14.7312389,8.19769312 15.6307881,9.54248933 15.6308,11.03448 C15.6338528,13.0654547 13.9909707,14.7149249 11.96,14.72 L11.96,14.72 Z M11.96,9.20736 C10.9450091,9.21243502 10.1258311,10.0384648 10.1292102,11.0534627 C10.1325893,12.0684606 10.9572492,12.8890177 11.9722513,12.8873345 C12.9872535,12.8856512 13.8091873,12.0623635 13.8092,11.04736 C13.809451,10.557604 13.61444,10.0879563 13.2673541,9.74242441 C12.9202681,9.39689254 12.4497499,9.20399116 11.96,9.20644 L11.96,9.20736 Z" opacity=".5"/>
</svg>
