<svg xmlns="http://www.w3.org/2000/svg" width="22" height="22" viewBox="0 0 22 22">
  <path fill="#FFF" fill-rule="evenodd" d="M20.1666667,22 L1.83333333,22 C0.820811292,22 0,21.1791887 0,20.1666667 L0,1.83333333 C0,0.820811292 0.820811292,0 1.83333333,0 L20.1666667,0 C21.1791887,0 22,0.820811292 22,1.83333333 L22,20.1666667 C22,21.1791887 21.1791887,22 20.1666667,22 L20.1666667,22 Z M8.25,11 C8.25,12.5187831 9.48121694,13.75 11,13.75 C12.5187831,13.75 13.75,12.5187831 13.75,11 C13.75,9.48121694 12.5187831,8.25 11,8.25 C9.48121694,8.25 8.25,9.48121694 8.25,11 L8.25,11 Z M20.1666667,11.9166667 L15.4916667,11.9166667 C15.0579069,14.052797 13.1797248,15.5879282 11,15.5879282 C8.82027519,15.5879282 6.94209309,14.052797 6.50833333,11.9166667 L1.83333333,11.9166667 L1.83333333,20.1666667 L20.1666667,20.1666667 L20.1666667,11.9166667 L20.1666667,11.9166667 Z M16.9583333,3.66666667 C17.7177249,3.66666667 18.3333333,4.28227514 18.3333333,5.04166667 C18.3333333,5.8010582 17.7177249,6.41666667 16.9583333,6.41666667 C16.1989418,6.41666667 15.5833333,5.8010582 15.5833333,5.04166667 C15.5833333,4.28227514 16.1989418,3.66666667 16.9583333,3.66666667 L16.9583333,3.66666667 Z" opacity=".5"/>
</svg>
