<svg xmlns="http://www.w3.org/2000/svg" width="102" height="25" viewBox="0 0 102 25">
  <g fill="none">
    <path fill="#151515" d="M52.5924951,0.228542407 C52.8009666,0.228542407 52.9823341,0.302606336 53.136603,0.450736414 C53.290872,0.598866493 53.3680053,0.782968258 53.3680053,1.00304723 L53.3680053,8.35449467 C53.3680053,8.57457364 53.297126,8.75867541 53.1553654,8.90680549 C53.0136047,9.05493556 52.8259832,9.12899949 52.5924951,9.12899949 C52.359007,9.12899949 52.1693007,9.05705168 52.0233706,8.91315389 C51.8774406,8.76925609 51.8044766,8.58303822 51.8044766,8.35449467 L51.8044766,3.2376841 L49.7406188,6.43727781 C49.6572302,6.53885272 49.5613348,6.62138109 49.4529296,6.68486541 C49.3445244,6.74834973 49.2319514,6.77585919 49.1152074,6.76739462 C49.0068022,6.77585919 48.8983986,6.74834973 48.7899934,6.68486541 C48.6815882,6.62138109 48.5856928,6.53885272 48.5023041,6.43727781 L46.4384463,3.1234129 L46.4384463,8.35449467 C46.4384463,8.58303822 46.3717365,8.76925609 46.2383147,8.91315389 C46.1048929,9.05705168 45.9297794,9.12899949 45.7129691,9.12899949 C45.5044975,9.12899949 45.3335534,9.05493556 45.2001317,8.90680549 C45.0667099,8.75867541 45,8.57457364 45,8.35449467 L45,1.00304723 C45,0.791432834 45.0771333,0.609447181 45.2314022,0.457084815 C45.3856712,0.304722448 45.571208,0.228542407 45.7880184,0.228542407 C45.9131013,0.228542407 46.0381824,0.260284091 46.1632653,0.32376841 C46.2883482,0.38725273 46.3842437,0.469781107 46.4509546,0.571356018 L49.1777485,4.82478415 L51.9795918,0.571356018 C52.0463027,0.469781107 52.1359441,0.38725273 52.2485188,0.32376841 C52.3610934,0.260284091 52.475751,0.228542407 52.5924951,0.228542407 Z M61.1231073,5.57389538 C61.1147684,5.7770452 61.0355505,5.94210196 60.885451,6.06907059 C60.7353515,6.19603923 60.560238,6.2595226 60.3601053,6.2595226 L56.2323897,6.2595226 C56.3324561,6.75893258 56.5617713,7.15041334 56.9203423,7.43397664 C57.2789134,7.71753993 57.6833421,7.85931945 58.1336406,7.85931945 C58.4755339,7.85931945 58.7423734,7.82757777 58.9341672,7.76409345 C59.125961,7.70060913 59.278143,7.63289354 59.3907176,7.56094464 C59.5032922,7.48899575 59.5804255,7.44032517 59.6221198,7.41493144 C59.7722193,7.33875025 59.9139778,7.30066023 60.0473996,7.30066023 C60.2225157,7.30066023 60.3726129,7.3641436 60.4976959,7.49111224 C60.6227788,7.61808088 60.6853193,7.76620874 60.6853193,7.93550025 C60.6853193,8.1640438 60.568577,8.3714228 60.3350889,8.55764347 C60.1016008,8.75232872 59.7888982,8.91738547 59.3969717,9.05281869 C59.0050452,9.1882519 58.6089553,9.2559675 58.2086899,9.2559675 C57.5082256,9.2559675 56.8974132,9.10783964 56.3762344,8.81157948 C55.8550555,8.51531932 55.4527115,8.10690966 55.1691903,7.58633824 C54.885669,7.06576682 54.7439105,6.47960373 54.7439105,5.82783139 C54.7439105,5.09987786 54.8940077,4.46081196 55.1942067,3.91061453 C55.4944057,3.36041709 55.8904957,2.93931075 56.3824885,2.64728288 C56.8744813,2.35525502 57.3998217,2.20924327 57.9585253,2.20924327 C58.5088902,2.20924327 59.0279765,2.36160335 59.5157999,2.66632809 C60.0036232,2.97105282 60.3934592,3.38157859 60.6853193,3.89791772 C60.9771794,4.41425686 61.1231073,4.97291049 61.1231073,5.57389538 Z M57.9585253,3.60589132 C56.9912175,3.60589132 56.420014,4.06720378 56.244898,4.98984256 L59.522054,4.98984256 L59.522054,4.90096496 C59.4886985,4.54545277 59.3177545,4.24073261 59.0092166,3.98679533 C58.7006787,3.73285805 58.3504518,3.60589132 57.9585253,3.60589132 Z M70.0915076,2.20924327 C70.9170548,2.20924327 71.4882582,2.46529285 71.805135,2.9773997 C72.1220117,3.48950654 72.2804477,4.19840414 72.2804477,5.10411376 L72.2804477,8.35449467 C72.2804477,8.57457364 72.2095684,8.75867541 72.0678078,8.90680549 C71.9260471,9.05493556 71.7467643,9.12899949 71.5299539,9.12899949 C71.3131435,9.12899949 71.1338607,9.05493556 70.9921001,8.90680549 C70.8503394,8.75867541 70.7794602,8.57457364 70.7794602,8.35449467 L70.7794602,5.10411376 C70.7794602,4.63856209 70.6898188,4.27247467 70.5105332,4.00584053 C70.3312477,3.73920639 70.0164604,3.60589132 69.5661619,3.60589132 C69.0991857,3.60589132 68.734366,3.74767084 68.4716919,4.03123413 C68.2090178,4.31479742 68.0776827,4.67242039 68.0776827,5.10411376 L68.0776827,8.35449467 C68.0776827,8.57457364 68.0068034,8.75867541 67.8650428,8.90680549 C67.7232822,9.05493556 67.5439993,9.12899949 67.3271889,9.12899949 C67.1103786,9.12899949 66.9310957,9.05493556 66.7893351,8.90680549 C66.6475745,8.75867541 66.5766952,8.57457364 66.5766952,8.35449467 L66.5766952,5.10411376 C66.5766952,4.63856209 66.4870538,4.27247467 66.3077683,4.00584053 C66.1284828,3.73920639 65.8136955,3.60589132 65.363397,3.60589132 C64.8964208,3.60589132 64.5316011,3.74767084 64.2689269,4.03123413 C64.0062528,4.31479742 63.8749177,4.67242039 63.8749177,5.10411376 L63.8749177,8.35449467 C63.8749177,8.57457364 63.8040385,8.75867541 63.6622778,8.90680549 C63.5205172,9.05493556 63.3412344,9.12899949 63.124424,9.12899949 C62.9076136,9.12899949 62.7283308,9.05493556 62.5865701,8.90680549 C62.4448095,8.75867541 62.3739302,8.57457364 62.3739302,8.35449467 L62.3739302,3.1107161 C62.3739302,2.89063713 62.4448095,2.70653536 62.5865701,2.55840528 C62.7283308,2.4102752 62.9076136,2.33621127 63.124424,2.33621127 C63.3412344,2.33621127 63.5205172,2.4102752 63.6622778,2.55840528 C63.8040385,2.70653536 63.8749177,2.89063713 63.8749177,3.1107161 L63.8749177,3.31386491 C64.100067,3.00914017 64.3856687,2.74885837 64.7317314,2.53301168 C65.0777941,2.31716499 65.4634607,2.20924327 65.8887426,2.20924327 C66.9394391,2.20924327 67.6107073,2.67478796 67.9025675,3.60589132 C68.0943613,3.25037913 68.3841324,2.92873007 68.7718894,2.64093448 C69.1596464,2.3531389 69.5995148,2.20924327 70.0915076,2.20924327 Z M80.3357472,5.73895378 C80.3357472,6.41611986 80.18565,7.02344407 79.885451,7.56094464 C79.585252,8.09844521 79.1745692,8.51531932 78.6533904,8.81157948 C78.1322116,9.10783964 77.5589235,9.2559675 76.9335089,9.2559675 C76.2997554,9.2559675 75.7243827,9.10783964 75.2073733,8.81157948 C74.6903639,8.51531932 74.2817658,8.09844521 73.9815668,7.56094464 C73.6813678,7.02344407 73.5312706,6.41611986 73.5312706,5.73895378 C73.5312706,5.06178771 73.6813678,4.4544635 73.9815668,3.91696293 C74.2817658,3.37946235 74.6903639,2.96047213 75.2073733,2.65997969 C75.7243827,2.35948724 76.2997554,2.20924327 76.9335089,2.20924327 C77.5589235,2.20924327 78.1322116,2.35948724 78.6533904,2.65997969 C79.1745692,2.96047213 79.585252,3.37946235 79.885451,3.91696293 C80.18565,4.4544635 80.3357472,5.06178771 80.3357472,5.73895378 Z M78.8347597,5.73895378 C78.8347597,5.32418956 78.7492877,4.95386992 78.578341,4.62798375 C78.4073944,4.30209757 78.1780791,4.05028022 77.8903884,3.87252412 C77.6026977,3.69476803 77.2837411,3.60589132 76.9335089,3.60589132 C76.5832767,3.60589132 76.2643201,3.69476803 75.9766294,3.87252412 C75.6889387,4.05028022 75.4596234,4.30209757 75.2886768,4.62798375 C75.1177301,4.95386992 75.0322581,5.32418956 75.0322581,5.73895378 C75.0322581,6.153718 75.1177301,6.52192153 75.2886768,6.84357542 C75.4596234,7.1652293 75.6889387,7.41493055 75.9766294,7.59268664 C76.2643201,7.77044274 76.5832767,7.85931945 76.9335089,7.85931945 C77.2837411,7.85931945 77.6026977,7.77044274 77.8903884,7.59268664 C78.1780791,7.41493055 78.4073944,7.1652293 78.578341,6.84357542 C78.7492877,6.52192153 78.8347597,6.153718 78.8347597,5.73895378 Z M85.0638578,2.20924327 C85.3140236,2.20924327 85.5245767,2.28119109 85.6955234,2.42508888 C85.86647,2.56898667 85.9519421,2.73827565 85.9519421,2.93296089 C85.9519421,3.19536275 85.8852322,3.39216119 85.7518104,3.52336211 C85.6183886,3.65456304 85.4599526,3.72016252 85.2764977,3.72016252 C85.1514148,3.72016252 85.0096563,3.69053695 84.8512179,3.63128492 C84.8262013,3.62282034 84.7699149,3.60589144 84.6823568,3.58049771 C84.5947988,3.55510399 84.500988,3.54240731 84.4009217,3.54240731 C84.1841113,3.54240731 83.9756429,3.61012291 83.7755102,3.74555612 C83.5753775,3.88098933 83.4106875,4.08625222 83.2814352,4.36135094 C83.1521828,4.63644966 83.0875576,4.96444705 83.0875576,5.34535297 L83.0875576,8.35449467 C83.0875576,8.57457364 83.0166783,8.75867541 82.8749177,8.90680549 C82.7331571,9.05493556 82.5538742,9.12899949 82.3370639,9.12899949 C82.1202535,9.12899949 81.9409706,9.05493556 81.79921,8.90680549 C81.6574494,8.75867541 81.5865701,8.57457364 81.5865701,8.35449467 L81.5865701,3.1107161 C81.5865701,2.89063713 81.6574494,2.70653536 81.79921,2.55840528 C81.9409706,2.4102752 82.1202535,2.33621127 82.3370639,2.33621127 C82.5538742,2.33621127 82.7331571,2.4102752 82.8749177,2.55840528 C83.0166783,2.70653536 83.0875576,2.89063713 83.0875576,3.1107161 L83.0875576,3.2757745 C83.2793514,2.92872689 83.5545297,2.66421286 83.9131007,2.48222448 C84.2716718,2.3002361 84.6552536,2.20924327 85.0638578,2.20924327 Z M88.4285714,8.35449467 C88.4285714,8.57457364 88.3576922,8.75867541 88.2159315,8.90680549 C88.0741709,9.05493556 87.8948881,9.12899949 87.6780777,9.12899949 C87.4612673,9.12899949 87.2819845,9.05493556 87.1402238,8.90680549 C86.9984632,8.75867541 86.9275839,8.57457364 86.9275839,8.35449467 L86.9275839,3.1107161 C86.9275839,2.89063713 86.9984632,2.70653536 87.1402238,2.55840528 C87.2819845,2.4102752 87.4612673,2.33621127 87.6780777,2.33621127 C87.8948881,2.33621127 88.0741709,2.4102752 88.2159315,2.55840528 C88.3576922,2.70653536 88.4285714,2.89063713 88.4285714,3.1107161 L88.4285714,8.35449467 Z M87.6655695,1.51091925 C87.3820482,1.51091925 87.1819185,1.46436478 87.0651745,1.37125444 C86.9484304,1.27814411 86.8900592,1.11308735 86.8900592,0.876079228 L86.8900592,0.63484002 C86.8900592,0.397831894 86.9525998,0.23277514 87.0776827,0.139664804 C87.2027656,0.0465544693 87.4028953,0 87.6780777,0 C87.9699378,0 88.1742369,0.0465544693 88.2909809,0.139664804 C88.407725,0.23277514 88.4660961,0.397831894 88.4660961,0.63484002 L88.4660961,0.876079228 C88.4660961,1.12155193 88.4056403,1.2887248 88.2847268,1.37760284 C88.1638133,1.46648089 87.9574296,1.51091925 87.6655695,1.51091925 Z M95.9710336,5.57389538 C95.9626947,5.7770452 95.8834767,5.94210196 95.7333772,6.06907059 C95.5832777,6.19603923 95.4081643,6.2595226 95.2080316,6.2595226 L91.080316,6.2595226 C91.1803823,6.75893258 91.4096976,7.15041334 91.7682686,7.43397664 C92.1268396,7.71753993 92.5312683,7.85931945 92.9815668,7.85931945 C93.3234601,7.85931945 93.5902997,7.82757777 93.7820935,7.76409345 C93.9738873,7.70060913 94.1260692,7.63289354 94.2386438,7.56094464 C94.3512185,7.48899575 94.4283518,7.44032517 94.4700461,7.41493144 C94.6201456,7.33875025 94.7619041,7.30066023 94.8953259,7.30066023 C95.070442,7.30066023 95.2205392,7.3641436 95.3456221,7.49111224 C95.470705,7.61808088 95.5332456,7.76620874 95.5332456,7.93550025 C95.5332456,8.1640438 95.4165033,8.3714228 95.1830151,8.55764347 C94.949527,8.75232872 94.6368244,8.91738547 94.244898,9.05281869 C93.8529715,9.1882519 93.4568815,9.2559675 93.0566162,9.2559675 C92.3561519,9.2559675 91.7453395,9.10783964 91.2241606,8.81157948 C90.7029818,8.51531932 90.3006378,8.10690966 90.0171165,7.58633824 C89.7335952,7.06576682 89.5918367,6.47960373 89.5918367,5.82783139 C89.5918367,5.09987786 89.741934,4.46081196 90.042133,3.91061453 C90.342332,3.36041709 90.7384219,2.93931075 91.2304147,2.64728288 C91.7224076,2.35525502 92.2477479,2.20924327 92.8064516,2.20924327 C93.3568164,2.20924327 93.8759028,2.36160335 94.3637261,2.66632809 C94.8515495,2.97105282 95.2413854,3.38157859 95.5332456,3.89791772 C95.8251057,4.41425686 95.9710336,4.97291049 95.9710336,5.57389538 Z M92.8064516,3.60589132 C91.8391437,3.60589132 91.2679403,4.06720378 91.0928242,4.98984256 L94.3699803,4.98984256 L94.3699803,4.90096496 C94.3366248,4.54545277 94.1656807,4.24073261 93.8571429,3.98679533 C93.548605,3.73285805 93.1983781,3.60589132 92.8064516,3.60589132 Z M96.8341014,8.07516506 C96.7590516,7.97359015 96.7215273,7.84662341 96.7215273,7.69426105 C96.7215273,7.47418207 96.8299309,7.2879642 97.0467413,7.13560183 C97.1634853,7.05942064 97.284397,7.02133062 97.4094799,7.02133062 C97.584596,7.02133062 97.7513707,7.10174289 97.9098091,7.26256983 C98.1599749,7.52497169 98.4205604,7.71965401 98.6915734,7.84662265 C98.9625864,7.97359129 99.2898818,8.03707466 99.6734694,8.03707466 C100.323901,8.01168093 100.649111,7.76197969 100.649111,7.28796343 C100.649111,7.04249073 100.538623,6.85627285 100.317643,6.72930422 C100.096663,6.60233558 99.7526905,6.47536884 99.2857143,6.3484002 C98.8020603,6.21296699 98.4080551,6.0775358 98.1036866,5.94210259 C97.7993182,5.80666938 97.536648,5.60140649 97.3156682,5.32630777 C97.0946884,5.05120905 96.9842001,4.68088941 96.9842001,4.21533773 C96.9842001,3.80903809 97.0988578,3.45564735 97.3281764,3.1551549 C97.5574951,2.85466246 97.8576896,2.62189011 98.2287689,2.45683088 C98.5998482,2.29177165 98.9938535,2.20924327 99.4107966,2.20924327 C99.8360785,2.20924327 100.261354,2.28965554 100.686636,2.45048248 C101.111918,2.61130942 101.445467,2.84831399 101.687294,3.1615033 C101.795699,3.29693652 101.849901,3.4492966 101.849901,3.61858812 C101.849901,3.81327336 101.770683,3.97409789 101.612245,4.10106653 C101.495501,4.19417687 101.362081,4.24073134 101.211982,4.24073134 C101.028527,4.24073134 100.878429,4.18148019 100.761685,4.06297613 C100.611586,3.87675546 100.41771,3.7286276 100.180053,3.61858812 C99.9423951,3.50854863 99.6734709,3.45352971 99.3732719,3.45352971 C98.7395184,3.45352971 98.4226465,3.68630206 98.4226465,4.15185373 C98.4226465,4.3380744 98.4810176,4.48831837 98.5977617,4.60259015 C98.7145057,4.71686192 98.8625183,4.80573864 99.0418038,4.86922296 C99.2210893,4.93270728 99.4733361,5.01100343 99.7985517,5.10411376 C100.24885,5.2310824 100.624093,5.36228136 100.924292,5.49771458 C101.224491,5.63314779 101.478823,5.84052679 101.687294,6.1198578 C101.895766,6.3991888 102,6.76739233 102,7.22447943 C102,7.63924365 101.879088,8.00109884 101.637261,8.31005587 C101.395434,8.61901289 101.084816,8.85390135 100.705398,9.01472829 C100.32598,9.17555523 99.9361442,9.2559675 99.5358789,9.2559675 C98.985514,9.2559675 98.4726818,9.16285856 97.9973667,8.97663789 C97.5220516,8.79041722 97.1343004,8.48992928 96.8341014,8.07516506 Z M50.2534562,19.9466734 C50.6954159,20.1244295 51.0560662,20.3952919 51.335418,20.7592687 C51.6147699,21.1232454 51.7544437,21.5930223 51.7544437,22.1686135 C51.7544437,23.175898 51.4709267,23.8784473 50.9038841,24.2762824 C50.3368416,24.6741174 49.661404,24.873032 48.877551,24.873032 L45.763002,24.873032 C45.5461916,24.873032 45.3648241,24.7989681 45.218894,24.650838 C45.0729639,24.5027079 45,24.3186061 45,24.0985272 L45,16.7597765 C45,16.5396976 45.0729639,16.3555958 45.218894,16.2074657 C45.3648241,16.0593356 45.5461916,15.9852717 45.763002,15.9852717 L48.9150757,15.9852717 C50.4994593,15.9852717 51.2916392,16.7386077 51.2916392,18.2453022 C51.2916392,18.6262081 51.2019978,18.9626699 51.0227123,19.2546978 C50.8434268,19.5467257 50.5870107,19.7773819 50.2534562,19.9466734 Z M49.6655695,18.5246318 C49.6655695,18.1775842 49.5800974,17.9173024 49.4091508,17.7437786 C49.2382041,17.5702548 48.9984654,17.4834942 48.6899276,17.4834942 L46.6260698,17.4834942 L46.6260698,19.464195 L48.7274523,19.464195 C48.9776181,19.464195 49.1965099,19.3795505 49.3841343,19.210259 C49.5717587,19.0409675 49.6655695,18.8124274 49.6655695,18.5246318 Z M48.877551,23.4128999 C49.2694775,23.4128999 49.575926,23.3070943 49.7969059,23.0954799 C50.0178857,22.8838655 50.1283739,22.5749132 50.1283739,22.1686135 C50.1283739,21.6692035 49.9991235,21.3433222 49.7406188,21.1909599 C49.4821141,21.0385975 49.1652422,20.9624175 48.7899934,20.9624175 L46.6260698,20.9624175 L46.6260698,23.4128999 L48.877551,23.4128999 Z M56.5450955,17.9532758 C56.7952613,17.9532758 57.0058144,18.0252236 57.176761,18.1691214 C57.3477077,18.3130192 57.4331797,18.4823082 57.4331797,18.6769934 C57.4331797,18.9393953 57.3664698,19.1361937 57.2330481,19.2673946 C57.0996263,19.3985955 56.9411903,19.464195 56.7577354,19.464195 C56.6326524,19.464195 56.4908939,19.4345695 56.3324556,19.3753174 C56.307439,19.3668528 56.2511525,19.3499239 56.1635945,19.3245302 C56.0760364,19.2991365 55.9822256,19.2864398 55.8821593,19.2864398 C55.6653489,19.2864398 55.4568805,19.3541554 55.2567479,19.4895886 C55.0566152,19.6250218 54.8919252,19.8302847 54.7626728,20.1053834 C54.6334205,20.3804822 54.5687953,20.7084796 54.5687953,21.0893855 L54.5687953,24.0985272 C54.5687953,24.3186061 54.497916,24.5027079 54.3561554,24.650838 C54.2143947,24.7989681 54.0351119,24.873032 53.8183015,24.873032 C53.6014911,24.873032 53.4222083,24.7989681 53.2804477,24.650838 C53.138687,24.5027079 53.0678078,24.3186061 53.0678078,24.0985272 L53.0678078,18.8547486 C53.0678078,18.6346696 53.138687,18.4505679 53.2804477,18.3024378 C53.4222083,18.1543077 53.6014911,18.0802438 53.8183015,18.0802438 C54.0351119,18.0802438 54.2143947,18.1543077 54.3561554,18.3024378 C54.497916,18.4505679 54.5687953,18.6346696 54.5687953,18.8547486 L54.5687953,19.019807 C54.7605891,18.6727594 55.0357674,18.4082454 55.3943384,18.226257 C55.7529094,18.0442686 56.1364913,17.9532758 56.5450955,17.9532758 Z M63.9124424,17.9532758 C64.1292528,17.9532758 64.3085356,18.0252236 64.4502962,18.1691214 C64.5920569,18.3130192 64.6629361,18.499237 64.6629361,18.7277806 L64.6629361,24.0985272 C64.6629361,24.3186061 64.5920569,24.5027079 64.4502962,24.650838 C64.3085356,24.7989681 64.1292528,24.873032 63.9124424,24.873032 C63.695632,24.873032 63.5184339,24.8010842 63.3808427,24.6571864 C63.2432515,24.5132886 63.1702875,24.3313029 63.1619487,24.111224 C62.9534771,24.3566967 62.6720448,24.5661918 62.3176432,24.7397156 C61.9632416,24.9132394 61.5900832,25 61.1981567,25 C60.6227753,25 60.1016043,24.849756 59.634628,24.5492636 C59.1676518,24.2487711 58.7986628,23.831897 58.5276498,23.2986287 C58.2566368,22.7653605 58.1211323,22.1601524 58.1211323,21.4829863 C58.1211323,20.8058202 58.2545521,20.198496 58.5213957,19.6609954 C58.7882392,19.1234949 59.1530589,18.7045046 59.6158657,18.4040122 C60.0786725,18.1035197 60.5894201,17.9532758 61.1481238,17.9532758 C61.5483891,17.9532758 61.9236322,18.0273397 62.2738644,18.1754698 C62.6240966,18.3235999 62.9201217,18.5119338 63.1619487,18.7404774 L63.1619487,18.7277806 C63.1619487,18.5077016 63.2328279,18.3235999 63.3745885,18.1754698 C63.5163492,18.0273397 63.695632,17.9532758 63.9124424,17.9532758 Z M61.3857801,23.603352 C61.9278061,23.603352 62.3697591,23.4023213 62.7116524,23.0002539 C63.0535457,22.5981866 63.2244898,22.0924358 63.2244898,21.4829863 C63.2244898,20.8735368 63.0535457,20.3656699 62.7116524,19.9593702 C62.3697591,19.5530706 61.9278061,19.3499238 61.3857801,19.3499238 C60.852093,19.3499238 60.4143094,19.5530706 60.0724161,19.9593702 C59.7305228,20.3656699 59.5595787,20.8735368 59.5595787,21.4829863 C59.5595787,22.0924358 59.7284381,22.5981866 60.0661619,23.0002539 C60.4038858,23.4023213 60.8437541,23.603352 61.3857801,23.603352 Z M69.8663594,17.9532758 C70.7169233,17.9532758 71.3048042,18.2093254 71.6300197,18.7214322 C71.9552353,19.233539 72.1178407,19.9424366 72.1178407,20.8481463 L72.1178407,24.0985272 C72.1178407,24.3186061 72.0469614,24.5027079 71.9052008,24.650838 C71.7634402,24.7989681 71.5841573,24.873032 71.3673469,24.873032 C71.1505366,24.873032 70.9712537,24.7989681 70.8294931,24.650838 C70.6877324,24.5027079 70.6168532,24.3186061 70.6168532,24.0985272 L70.6168532,20.8481463 C70.6168532,20.3825946 70.5209577,20.0165072 70.3291639,19.749873 C70.1373701,19.4832389 69.80799,19.3499238 69.3410138,19.3499238 C68.8573599,19.3499238 68.4779474,19.4917033 68.202765,19.7752666 C67.9275826,20.0588299 67.7899934,20.4164529 67.7899934,20.8481463 L67.7899934,24.0985272 C67.7899934,24.3186061 67.7191142,24.5027079 67.5773535,24.650838 C67.4355929,24.7989681 67.2563101,24.873032 67.0394997,24.873032 C66.8226893,24.873032 66.6434065,24.7989681 66.5016458,24.650838 C66.3598852,24.5027079 66.2890059,24.3186061 66.2890059,24.0985272 L66.2890059,18.8547486 C66.2890059,18.6346696 66.3598852,18.4505679 66.5016458,18.3024378 C66.6434065,18.1543077 66.8226893,18.0802438 67.0394997,18.0802438 C67.2563101,18.0802438 67.4355929,18.1543077 67.5773535,18.3024378 C67.7191142,18.4505679 67.7899934,18.6346696 67.7899934,18.8547486 L67.7899934,19.0705942 C68.0151427,18.7658695 68.3090831,18.5034716 68.6718236,18.2833926 C69.034564,18.0633136 69.4327387,17.9532758 69.8663594,17.9532758 Z M79.1599737,15.4773997 C79.3767841,15.4773997 79.5560669,15.5493475 79.6978275,15.6932453 C79.8395882,15.8371431 79.9104674,16.023361 79.9104674,16.2519045 L79.9104674,24.0985272 C79.9104674,24.3186061 79.8395882,24.5027079 79.6978275,24.650838 C79.5560669,24.7989681 79.3767841,24.873032 79.1599737,24.873032 C78.9431633,24.873032 78.7659651,24.8010842 78.6283739,24.6571864 C78.4907827,24.5132886 78.4178188,24.3313029 78.4094799,24.111224 C78.2010084,24.3566967 77.9195761,24.5661918 77.5651745,24.7397156 C77.2107729,24.9132394 76.8376144,25 76.445688,25 C75.8703065,25 75.3491355,24.849756 74.8821593,24.5492636 C74.4151831,24.2487711 74.046194,23.831897 73.775181,23.2986287 C73.5041681,22.7653605 73.3686636,22.1601524 73.3686636,21.4829863 C73.3686636,20.8058202 73.5020834,20.198496 73.7689269,19.6609954 C74.0357705,19.1234949 74.4005902,18.7045046 74.863397,18.4040122 C75.3262038,18.1035197 75.8369513,17.9532758 76.395655,17.9532758 C76.7959204,17.9532758 77.1711635,18.0273397 77.5213957,18.1754698 C77.8716278,18.3235999 78.1676529,18.5119338 78.4094799,18.7404774 L78.4094799,16.2519045 C78.4094799,16.0318255 78.4803592,15.8477238 78.6221198,15.6995937 C78.7638805,15.5514636 78.9431633,15.4773997 79.1599737,15.4773997 Z M76.6333114,23.603352 C77.1753374,23.603352 77.6172904,23.4023213 77.9591837,23.0002539 C78.301077,22.5981866 78.4720211,22.0924358 78.4720211,21.4829863 C78.4720211,20.8735368 78.301077,20.3656699 77.9591837,19.9593702 C77.6172904,19.5530706 77.1753374,19.3499238 76.6333114,19.3499238 C76.0996243,19.3499238 75.6618406,19.5530706 75.3199473,19.9593702 C74.978054,20.3656699 74.8071099,20.8735368 74.8071099,21.4829863 C74.8071099,22.0924358 74.9759693,22.5981866 75.3136932,23.0002539 C75.6514171,23.4023213 76.0912854,23.603352 76.6333114,23.603352 Z"/>
    <circle cx="4.5" cy="5.5" r="4.5" fill="#0091FF"/>
    <circle cx="4.5" cy="19.5" r="4.5" fill="#F60"/>
    <path fill="#FFC72F" d="M17.5,10 C19.9852814,10 22,7.98528137 22,5.5 C22,3.01471863 19.9852814,1 17.5,1 C15.0147186,1 13,3.01471863 13,5.5 C13,7.98528137 15.0147186,10 17.5,10 Z"/>
    <circle cx="17.5" cy="19.5" r="4.5" fill="#6236FF"/>
  </g>
</svg>
