<svg xmlns="http://www.w3.org/2000/svg" width="24" height="15" viewBox="0 0 24 15">
  <path fill="#FFF" fill-rule="evenodd" d="M22,13.125 L17,11.25 L17,13.125 C17,14.1605339 16.1045695,15 15,15 L2,15 C0.8954305,15 0,14.1605339 0,13.125 L0,1.875 C0,0.839466094 0.8954305,0 2,0 L15,0 C16.1045695,0 17,0.839466094 17,1.875 L17,3.75 L22,1.875 C23.1045695,1.875 24,2.71446609 24,3.75 L24,11.25 C24,12.2855339 23.1045695,13.125 22,13.125 L22,13.125 Z M15,9.375 L15,1.875 L2,1.875 L2,13.125 L15,13.125 L15,9.375 L15,9.375 Z"/>
</svg>
